<?xml version="1.0" encoding="UTF-8"?><svg xmlns="http://www.w3.org/2000/svg" xmlns:xlink="http://www.w3.org/1999/xlink" height="228.9" preserveAspectRatio="xMidYMid meet" version="1.0" viewBox="133.5 97.9 168.7 228.9" width="168.7" zoomAndPan="magnify"><g id="change1_1"><path d="M254.45,323.55c1.31-1.65,2.31-3.51,3.76-5.06c2.93-3.11,6.58-4.93,10.78-5.59c4.06-0.65,8.12-0.75,12.11-1.83 c4.32-1.17,8.51-2.87,12.45-5c2.26-1.22,4.5-2.58,6.52-4.2c-3.51-3.43-7.9-5.96-12.64-7.26c-4.12-1.13-9.31-2.04-10.56-6.12 c-1.79-5.84,6.76-10.58,6.12-16.65c-0.4-3.76-4.12-6.14-7.44-7.95c-4.02-2.19-8.38-4.45-12.93-3.91l-1.34-0.06 c1.59-15.65-0.61-33.69-0.23-49.42c0.87-35.93-0.22-66.4-11.79-90.38c-1.5-3.1-6.51-9.5-9.58-11.04c-2.29-1.15-4.96-1.18-7.52-1.19 c-25.72-0.09-50.19,2.45-75.91,2.35c10.83,1.77,21.69,8.16,26.09,18.41c4.4,10.25,2.57,18.52,3.07,29.67 c1.53,33.45,3.7,70.21,0.75,105.32l-1.35,0.29c-6.4,1.81-13,3.72-18.12,7.96c-5.12,4.23-8.4,11.46-6.03,17.67 c1.7,4.44,5.94,7.52,10.46,9c4.52,1.47,9.36,1.58,14.11,1.66c9.14,0.17,18.28,0.34,27.42,0.51c2.23,0.04,4.56,0.11,6.5,1.21 c1.94,1.1,3.28,3.6,2.32,5.61c-0.94,1.98-3.62,2.73-4.43,4.77c-1.33,3.35,3.17,5.89,6.68,6.71c4.94,1.16,21.15,5.19,27.43,6.69 C252.42,325.33,253.54,324.7,254.45,323.55z" fill="#a2d9ee"/></g><path d="M186.15,263.65c2.95-35.11,0.77-71.87-0.75-105.32c-0.51-11.15,1.33-19.41-3.07-29.67 s-15.26-16.65-26.09-18.41c25.72,0.09,50.19-2.45,75.91-2.35c2.56,0.01,5.23,0.04,7.52,1.19c3.08,1.54,8.09,7.94,9.58,11.04 c11.57,23.98,12.66,54.45,11.79,90.38c-0.38,15.72,1.82,33.77,0.23,49.42" fill="none" stroke="#335894" stroke-linecap="round" stroke-linejoin="round" stroke-miterlimit="10" stroke-width="1.5"/><path d="M184.8,263.94c-6.4,1.81-13,3.72-18.12,7.96c-5.12,4.23-8.4,11.46-6.03,17.67c1.7,4.44,5.94,7.52,10.46,9 c4.52,1.47,9.36,1.58,14.11,1.66c9.14,0.17,18.28,0.34,27.42,0.51c2.23,0.04,4.56,0.11,6.5,1.21c1.94,1.1,3.28,3.6,2.32,5.61 c-0.94,1.98-3.62,2.73-4.43,4.77c-1.33,3.35,3.17,5.89,6.68,6.71c5.25,1.23,23.24,5.71,28.49,6.94" fill="none" stroke="#335894" stroke-linecap="round" stroke-linejoin="round" stroke-miterlimit="10" stroke-width="1.5"/><path d="M262.61,259.99c4.55-0.54,8.91,1.72,12.93,3.91c3.32,1.81,7.05,4.19,7.44,7.95 c0.64,6.07-7.91,10.81-6.12,16.65c1.25,4.08,6.44,4.99,10.56,6.12c5.35,1.47,10.26,4.51,13.96,8.64" fill="none" stroke="#335894" stroke-linecap="round" stroke-linejoin="round" stroke-miterlimit="10" stroke-width="1.5"/><g id="change2_1"><path d="M164.3,232.21c-0.35,1.05-0.09,1.94,0.69,2.77c0.75,0.8,2.12,0.88,3.05,0.24c0.93-0.63,1.37-1.87,1.13-2.94 c-0.21-0.92-0.89-1.71-1.78-2.02C165.86,229.73,164.7,231.01,164.3,232.21z" fill="#7ac2e2"/></g><g id="change2_2"><path d="M172.83,238.6c1.1-0.05,1.89,0.44,2.47,1.41c0.57,0.94,0.27,2.28-0.6,3s-2.17,0.81-3.14,0.28 c-0.83-0.45-1.41-1.32-1.46-2.26C170.02,239.42,171.57,238.65,172.83,238.6z" fill="#7ac2e2"/></g><g id="change2_3"><path d="M176.66,248.54c-0.35,1.05-0.09,1.94,0.69,2.77c0.75,0.8,2.12,0.88,3.05,0.24c0.93-0.63,1.37-1.87,1.13-2.94 c-0.21-0.92-0.89-1.71-1.78-2.02C178.22,246.06,177.06,247.34,176.66,248.54z" fill="#7ac2e2"/></g><g id="change2_4"><path d="M150.32,257.39c0.58,0.94,1.42,1.32,2.56,1.26c1.09-0.06,2.04-1.05,2.16-2.17c0.12-1.12-0.54-2.25-1.52-2.76 c-0.83-0.43-1.88-0.43-2.69,0.05C149.43,254.59,149.65,256.31,150.32,257.39z" fill="#7ac2e2"/></g><g id="change2_5"><path d="M160.7,255c0.67-0.87,1.56-1.16,2.68-0.98c1.08,0.17,1.91,1.27,1.91,2.4c-0.01,1.13-0.79,2.18-1.81,2.58 c-0.87,0.34-1.91,0.22-2.67-0.34C159.52,257.68,159.93,256,160.7,255z" fill="#7ac2e2"/></g><g id="change2_6"><path d="M170.77,258.5c0.58,0.94,1.42,1.32,2.56,1.26c1.09-0.06,2.04-1.05,2.16-2.17c0.12-1.12-0.54-2.25-1.52-2.76 c-0.83-0.43-1.88-0.43-2.69,0.05C169.88,255.7,170.11,257.42,170.77,258.5z" fill="#7ac2e2"/></g><g id="change2_7"><path d="M287.23,226.96c0.4,1.2,0.1,2.22-0.79,3.16c-0.86,0.91-2.43,1-3.49,0.28c-1.06-0.73-1.57-2.14-1.29-3.37 c0.24-1.05,1.01-1.96,2.03-2.31C285.44,224.12,286.77,225.58,287.23,226.96z" fill="#7ac2e2"/></g><g id="change2_8"><path d="M277.46,234.27c-1.26-0.06-2.16,0.51-2.83,1.62c-0.65,1.07-0.31,2.61,0.68,3.44c0.99,0.83,2.49,0.92,3.59,0.32 c0.94-0.51,1.61-1.51,1.67-2.58C280.68,235.21,278.91,234.33,277.46,234.27z" fill="#7ac2e2"/></g><g id="change2_9"><path d="M273.09,245.65c0.4,1.2,0.1,2.22-0.79,3.16c-0.86,0.91-2.43,1-3.49,0.28c-1.06-0.73-1.57-2.14-1.29-3.37 c0.24-1.05,1.01-1.96,2.03-2.31C271.3,242.81,272.63,244.27,273.09,245.65z" fill="#7ac2e2"/></g><g id="change2_10"><path d="M299.94,248.31c-0.36,1.21-1.18,1.88-2.45,2.15c-1.22,0.26-2.57-0.56-3.03-1.76c-0.46-1.2-0.07-2.65,0.86-3.5 c0.79-0.73,1.95-1.03,2.99-0.74C300.09,244.96,300.35,246.92,299.94,248.31z" fill="#7ac2e2"/></g><g id="change2_11"><path d="M287.75,248.75c-1-0.76-2.06-0.81-3.25-0.28c-1.14,0.51-1.74,1.97-1.4,3.21c0.34,1.24,1.52,2.18,2.77,2.31 c1.07,0.12,2.18-0.32,2.85-1.17C289.86,251.37,288.9,249.63,287.75,248.75z" fill="#7ac2e2"/></g><g id="change2_12"><path d="M277.67,255.61c-0.36,1.21-1.18,1.88-2.45,2.15c-1.22,0.26-2.57-0.56-3.03-1.76c-0.46-1.2-0.07-2.65,0.86-3.5 c0.79-0.73,1.95-1.03,2.99-0.74C277.82,252.26,278.08,254.22,277.67,255.61z" fill="#7ac2e2"/></g><path d="M201.18,144.94c3.12,18.54,4.1,37.44,2.94,56.2" fill="none" stroke="#335894" stroke-linecap="round" stroke-linejoin="round" stroke-miterlimit="10" stroke-width="1.5"/><path d="M220.33,180.31c2.04,18.77,2.89,37.67,2.53,56.55" fill="none" stroke="#335894" stroke-linecap="round" stroke-linejoin="round" stroke-miterlimit="10" stroke-width="1.5"/><path d="M240.89,149.47c1.2,10.71,1.89,21.47,2.05,32.25" fill="none" stroke="#335894" stroke-linecap="round" stroke-linejoin="round" stroke-miterlimit="10" stroke-width="1.5"/><path d="M147.67,104.58c1.71-0.09,5.38,1.08,6.26,2.55c0.88,1.47,1.17,3.21,1.37,4.91c0.78,6.43,0.55,13.08-1.56,19.21 c-0.51,1.47-1.35,3.09-2.87,3.37c-1.13,0.2-2.27-0.46-2.97-1.37c-0.69-0.91-1.03-2.04-1.35-3.14" fill="none" stroke="#335894" stroke-linecap="round" stroke-linejoin="round" stroke-miterlimit="10" stroke-width="1.5"/><path d="M146.4,115.77c0.11,6.04,0.21,12.08,0.32,18.12c0.05,2.96-0.12,7.09-1.94,9.58c-3.02,4.1-7.22,2.01-8.07-2.7" fill="none" stroke="#335894" stroke-linecap="round" stroke-linejoin="round" stroke-miterlimit="10" stroke-width="1.5"/><path d="M147.44,103.28c0.05,1.09,0.11,2.17,0.16,3.26c0.12,2.36,0.2,4.87-1,6.9c-1.82,3.1-6.65,3.83-9.31,1.42 c-0.96-0.87-1.81-1.96-2.17-3.21c-0.84-2.93-0.46-6.35-0.84-8.37" fill="none" stroke="#335894" stroke-linecap="round" stroke-linejoin="round" stroke-miterlimit="10" stroke-width="1.5"/><path d="M239.96,100.11c5.17-0.9,9.11,0.65,11.96,3.82c3.58,3.98,3.61,9.56,3.67,14.62c0.02,1.7,0.06,7.67,0.08,9.36" fill="none" stroke="#335894" stroke-linecap="round" stroke-linejoin="round" stroke-miterlimit="10" stroke-width="1.5"/><path d="M248.76,101.03c3.04-2.12,7.2-2.34,10.61-0.89c3.41,1.45,6.06,4.42,7.49,7.83c1.38,3.3,1.64,7.26-0.18,10.34 c-1.82,3.08-7.88,4.48-11.02,2.76" fill="none" stroke="#335894" stroke-linecap="round" stroke-linejoin="round" stroke-miterlimit="10" stroke-width="1.5"/><path d="M187.63,270.89c-7.53,2.47-12.48,9.56-11.09,17.52c0.41,2.34,1.75,4.66,3.93,5.6" fill="none" stroke="#335894" stroke-linecap="round" stroke-linejoin="round" stroke-miterlimit="10" stroke-width="1.5"/><path d="M186.15,263.65c2.63-4,7.06-7.12,11.82-7.62c4.76-0.5,9.71,1.24,13.11,4.6c0.32,0.31,0.66,0.66,1.11,0.69 c0.47,0.03,0.87-0.3,1.22-0.62c2.31-2.07,4.72-4.1,7.54-5.38c2.82-1.29,7.92-1.72,10.8-0.59c3.96,1.55,6.24,5.17,7.48,8.17" fill="none" stroke="#335894" stroke-linecap="round" stroke-linejoin="round" stroke-miterlimit="10" stroke-width="1.5"/><path d="M205.19,266.31c2.24-2.77,5.67-4.54,9.23-4.75c3.56-0.21,7.18,1.15,9.72,3.65" fill="none" stroke="#335894" stroke-linecap="round" stroke-linejoin="round" stroke-miterlimit="10" stroke-width="1.5"/></svg>