<?xml version="1.0" encoding="UTF-8"?><svg xmlns="http://www.w3.org/2000/svg" xmlns:xlink="http://www.w3.org/1999/xlink" height="500.0" preserveAspectRatio="xMidYMid meet" version="1.0" viewBox="0.0 0.0 500.0 500.0" width="500.0" zoomAndPan="magnify"><g id="change1_1"><path d="M500.01,250c0,89.96-47.52,168.83-118.83,212.86C343.05,486.41,298.11,500,250,500 c-29.1,0-57.04-4.97-83.03-14.12C69.72,451.65,0,358.97,0,250C0,111.93,111.93,0,250,0c88.49,0,166.25,45.97,210.68,115.34 c8.34,13.03,15.51,26.87,21.35,41.4C493.63,185.57,500.01,217.03,500.01,250z" fill="#FFAE85"/></g><g id="change2_1"><path d="M482.03,156.74c11.6,28.82,17.98,60.29,17.98,93.26c0,89.96-47.52,168.83-118.83,212.86 c-4.43-16.23-11.9-31.63-22.02-45.05c14.06-17.19,23.29-37.91,24.88-60.3c2.27-31.85-9.91-62.91-24.09-91.51 c-11.76-23.73-25.15-46.98-33.71-71.92C368.63,158.58,428.17,144.37,482.03,156.74z" fill="#FFE1C7"/></g><g id="change1_2"><path d="M123.91,398.38c9.74,31.13,24.37,60.74,43.06,87.5C69.72,451.65,0,358.97,0,250C0,111.93,111.93,0,250,0 c88.49,0,166.25,45.97,210.68,115.34c-27.46-15.86-59.43-25.31-91.02-27.59c-23.47-1.68-44.68,14.15-49.57,37.15 c-3.7,17.39-2.73,36.21,1.52,53.55c1.3,5.29,2.86,10.49,4.62,15.62c8.56,24.94,21.95,48.18,33.71,71.92 c14.18,28.6,26.36,59.67,24.09,91.51c-1.6,22.39-10.82,43.1-24.88,60.3c-22.09,27.02-56.11,45.38-91.27,48.04 C212.93,470,159.05,441.02,123.91,398.38z" fill="#FFAE85"/></g><g id="change3_1"><path d="M482.03,156.74c-53.86-12.37-113.4,1.83-155.79,37.33c-1.76-5.13-3.33-10.33-4.62-15.62 c-4.25-17.34-5.22-36.16-1.52-53.55c4.89-23.01,26.1-38.83,49.57-37.15c31.59,2.28,63.55,11.73,91.02,27.59 C469.02,128.37,476.19,142.21,482.03,156.74z M267.89,465.84c-54.96,4.16-108.84-24.82-143.98-67.46 c9.74,31.13,24.37,60.74,43.06,87.5C192.96,495.03,220.9,500,250,500c48.11,0,93.05-13.59,131.18-37.14 c-4.43-16.23-11.9-31.63-22.02-45.05C337.07,444.82,303.04,463.19,267.89,465.84z M258.94,385.9c11.77-3.58,17.25-19.86,12.24-36.36 c-5.01-16.51-18.62-26.99-30.39-23.42c-11.77,3.58-17.25,19.86-12.24,36.36C233.56,379,247.17,389.48,258.94,385.9z" fill="#D66E47"/></g><g id="change4_1"><path d="M358.57,421.85c-22.12,26.25-56.35,42.2-89.94,47.16c-61.65,9.09-122.42-22.53-157.08-73.02 c-31.97-46.58-42.14-107.44-26.42-161.75c0.59-2.03,4.72-1.93,4.14,0.35c-7.57,29.71-7.04,60.8,0.41,90.48 c13.45,53.57,48.98,101.74,100.24,124.25c27.6,12.12,57.81,15.6,87.33,9.31c28.67-6.11,52.79-21.34,74.32-40.72 C354.52,415.26,362.06,417.72,358.57,421.85z M329,196.38c-2.84-10.93-5.92-21.83-6.86-33.13c-0.91-10.88-0.32-21.95,1.87-32.66 c4.47-21.92,14.83-42.53,30.46-58.62c3-3.08-3.06-5.87-5.59-3.54c-17.76,16.44-29.83,38.06-34.69,61.78 c-4.58,22.35-4.4,48.82,7.23,69.08C323.29,202.55,329.98,200.15,329,196.38z" fill="#642624"/></g><g id="change5_1"><path d="M143.85,278.11c0.33,1.33,0.14,2.93,0.07,4.13c-0.15,2.73-0.72,5.13-1.87,7.61 c-0.97,2.08-4.93,1.88-4.99-0.59c-14.05,23.52-21.38,51.18-18.25,78.58c0.37,3.26-5.64,4.47-6.1,1.21 c-4.15-29.19,1.72-59.23,18.4-83.4c-0.48-0.1-0.94-0.31-1.3-0.67c-1.06-1.05-0.73-2.65,0.44-3.48c2.27-1.62,4.5-3.36,6.84-4.88 c1.69-1.09,4.02-1.71,5.74-0.29c0.05,0.04,0.08,0.09,0.12,0.13C143.5,276.88,143.85,277.43,143.85,278.11z M250.26,222.78 c-1.63,1.05-3.23,2.16-3.92,3.91c-0.68,1.73,1.03,3.09,2.72,2.71c2.62-0.59,4.31-2.4,6.32-4.1c1.58-1.35,4.06-2.84,4.51-5.03 c0.85-4.14-6.06-7.52-9.03-8.95c-2.45-1.18-6.27,2.1-3.23,3.64c0.27,0.14,0.53,0.28,0.8,0.42c-34.32-1.26-68,13.19-90.6,39.3 c-3.14,3.63,3.66,5.72,6.22,2.89C185.71,233.7,218.12,220.66,250.26,222.78z M177.27,335.05c1.23,1.46,4.2,0.74,4.73-1.19 c0.65-2.39,0.69-4.67,0.71-7.13c0-1.1-0.07-2.16-0.51-3.01c0.1-0.98-0.92-1.51-2.05-1.54c-2.07-0.58-3.81,0.65-5.28,2.01 c-1.68,1.54-3.3,3.14-4.91,4.75c-1.87,1.86,0.64,3.66,2.7,3.4c-7.88,17.65-7.28,39.19,4.57,54.97c2.16,2.87,8.53,0.52,6.46-3.09 C175.06,369.2,172.14,351.3,177.27,335.05z M259.63,434.25c-21.04,0.45-42.08-7.06-56.85-22.05c0.13,0.06,0.27,0.12,0.4,0.18 c1.65,0.71,3.89-1.15,2.62-2.76c-2.66-3.36-6.69-4.91-10.73-6.07c-1.38-0.4-4.26,0.62-3.7,2.54c0.93,3.19,1.87,6.38,2.8,9.58 c0.72,2.46,5.47,1.79,4.86-0.76c-0.01-0.04-0.02-0.08-0.03-0.12c14.87,17.53,37.42,27.41,60.74,24.32 C262.9,438.68,263.1,434.18,259.63,434.25z M323.64,384.06c-3.37,11.06-9.87,20.83-18.67,28.34c-3.96,3.38-8.31,6.37-12.96,8.73 c-1.98,1-4.04,1.84-6.08,2.7c0.8-0.86,0.99-2.05-0.12-2.89c-1.24-0.94-2.88-0.51-3.94,0.45c-1.6,1.44-3.2,2.88-4.8,4.31 c-1.13,1-2.6,2.16-2.1,3.86c0.46,1.56,2.36,2.4,3.69,3.09c2,1.04,4.12,1.73,6.37,1.95c2.54,0.25,4.08-2.73,1.92-4.02 c9.26-2.29,18.37-9.62,24.38-15.76c8.26-8.45,14.12-19.01,17.1-30.43C329.12,381.73,324.35,381.75,323.64,384.06z M365.96,274.96 c-1.09-1.77-3.59-1.58-4.93-0.31c-15.53-23.06-39.98-39.97-66.37-48.15c-3.29-1.02-6.14,3.61-2.25,4.88 c26.28,8.63,47.5,26.04,63,48.44c-1.72,0.32-3.08,2.07-1.22,3.47c2.69,2.03,5.41,3.99,8.15,5.95c2,1.43,5.02,0.7,5.66-1.8 C369.01,283.5,368.06,278.39,365.96,274.96z M281.24,286.27c-2.4-3.74-5.11-7.2-8.23-10.37c-1.71-1.74-5.71,0.33-3.85,2.58 c0.6,0.73,1.18,1.46,1.76,2.21c-27.06-13.37-61.34-0.98-77.52,24.04c-1.18,1.83,2.31,2.94,3.37,1.53 c8.3-10.95,20.09-18.96,33.42-22.37c13.01-3.32,26.32-1.29,38.74,3.22c-0.55,0.23-1.09,0.48-1.59,0.78 c-0.99,0.59-1.25,2.19-0.06,2.76c3.73,1.8,8.94,0.4,12.52-1.31C280.85,288.84,282.04,287.52,281.24,286.27z M330.94,353.53 c-1.32-20.74-14.98-39.25-32.17-50.58c-1.77-1.16-4.6,1.09-2.57,2.66c16.41,12.67,24.28,32.08,27.6,51.92 c-0.32-0.41-0.63-0.82-0.9-1.24c-0.81-1.25-3.66-0.71-2.92,0.95c0.83,1.85,1.19,4,1.92,5.92c0.65,1.72,1.32,3.43,1.98,5.15 c0.92,2.37,4.77,2.89,6.24,0.62c2.57-3.96,4.59-8.54,5.36-13.2C335.9,353.2,332.99,352.69,330.94,353.53z" fill="#C90000"/></g></svg>