<?xml version="1.0" encoding="UTF-8"?><svg xmlns="http://www.w3.org/2000/svg" xmlns:xlink="http://www.w3.org/1999/xlink" height="460.8" preserveAspectRatio="xMidYMid meet" version="1.0" viewBox="0.0 0.0 460.8 460.8" width="460.8" zoomAndPan="magnify"><g id="change1_1"><path d="M460.375,230.375c0,127.025-102.975,230-230,230s-230-102.975-230-230s102.975-230,230-230 S460.375,103.35,460.375,230.375z" fill="#F2DFCE"/></g><g id="change2_1"><path d="M421.815,102.874l-85.75,18.69c0.197,3.013,0.31,6.048,0.31,9.108v303.859 c-31.722,16.504-67.769,25.844-106,25.844c-127.025,0-230-102.975-230-230s102.975-230,230-230 C310.235,0.375,380.58,41.084,421.815,102.874z" fill="#F09E83"/></g><g id="change3_1"><path d="M243.922,460.345c0.193-0.011,0.386-0.023,0.579-0.035c56.221-3.379,108.608-26.869,148.773-67.035 c43.513-43.512,67.476-101.364,67.476-162.899c0-58.013-21.307-112.748-60.206-155.285c-0.604-0.662-1.218-1.313-1.829-1.968 c-0.772-0.825-1.547-1.647-2.333-2.463c-0.832-0.865-1.669-1.724-2.513-2.575c-0.2-0.202-0.394-0.408-0.595-0.609 c-0.369-0.369-0.748-0.726-1.119-1.093c-0.961-0.949-1.921-1.897-2.897-2.827c-0.378-0.361-0.764-0.711-1.145-1.069 c-1.751-1.647-3.525-3.263-5.323-4.851c-0.845-0.747-1.688-1.498-2.542-2.232c-0.644-0.552-1.296-1.094-1.946-1.639 c-1.135-0.954-2.276-1.897-3.426-2.827c-0.439-0.354-0.878-0.706-1.319-1.057C336.857,20.65,292.496,3.508,245.403,0.496 c-0.451-0.029-0.902-0.056-1.354-0.083c-1.77-0.103-3.544-0.185-5.321-0.248c-0.559-0.02-1.116-0.045-1.676-0.061 C234.831,0.041,232.606,0,230.375,0c-61.535,0-119.388,23.963-162.9,67.475C23.963,110.987,0,168.84,0,230.375 s23.963,119.388,67.475,162.899c43.512,43.513,101.365,67.476,162.9,67.476c2.19,0,4.374-0.039,6.554-0.099 c0.418-0.012,0.835-0.032,1.252-0.046C240.099,460.542,242.013,460.455,243.922,460.345z M392.744,392.744 c-16.737,16.738-35.61,30.559-55.994,41.239V130.672c0-2.846-0.095-5.731-0.291-8.81l85.244-18.579 C446.618,140.622,460,184.469,460,230.375C460,291.71,436.115,349.374,392.744,392.744z M68.006,392.744 c-16.003-16.003-29.344-33.957-39.82-53.318c36.64-13.982,58.206-45.66,60.731-89.249c0.554-9.563,0.189-19.509-1.083-29.56 c-0.012-0.097-0.079-0.177-0.171-0.207l-0.055-0.018c-0.017-0.005-0.033-0.002-0.05-0.004c-0.182-5.115-0.602-10.295-1.261-15.503 c-0.026-0.206-0.214-0.349-0.419-0.325c-0.206,0.026-0.351,0.214-0.325,0.419c1.298,10.255,1.67,20.398,1.105,30.15 c-2.644,45.651-25.617,78.273-64.694,91.895C8.078,297.131,0.75,264.318,0.75,230.375c0-61.335,23.885-118.999,67.256-162.369 C111.376,24.635,169.04,0.75,230.375,0.75c2.219,0,4.433,0.039,6.643,0.103c0.557,0.016,1.112,0.041,1.668,0.061 c1.767,0.063,3.53,0.142,5.29,0.246c0.45,0.026,0.901,0.054,1.35,0.082c47.005,3.045,91.344,20.373,127.553,49.056 c0.436,0.346,0.871,0.695,1.305,1.045c1.142,0.918,2.272,1.853,3.398,2.794c0.675,0.566,1.353,1.129,2.023,1.704 c0.818,0.701,1.625,1.417,2.434,2.129c3.256,2.872,6.445,5.843,9.56,8.916c0.524,0.518,1.052,1.031,1.571,1.554 c0.857,0.862,1.701,1.733,2.543,2.606c0.739,0.768,1.475,1.54,2.205,2.319c0.641,0.683,1.279,1.367,1.911,2.056 c1.303,1.426,2.597,2.863,3.867,4.325c0.064,0.073,0.13,0.145,0.193,0.219c6.183,7.136,11.968,14.697,17.308,22.659l-85.213,18.572 l-0.315,0.068l0.021,0.322c0.208,3.184,0.31,6.155,0.31,9.083v303.632c-28.253,14.663-59.645,23.292-91.568,25.259 c-0.194,0.012-0.388,0.024-0.582,0.036c-1.901,0.112-3.804,0.193-5.708,0.258c-0.415,0.014-0.829,0.034-1.244,0.046 c-2.173,0.062-4.347,0.098-6.523,0.098C169.04,460,111.376,436.115,68.006,392.744z M210.755,274.316 c2.881,2.063,6.529,3.172,10.379,3.172c0.388,0,0.778-0.011,1.169-0.034c8.857-0.513,15.724-6.782,15.307-13.976 c-0.202-3.5-2.074-6.688-5.27-8.978c-3.171-2.271-7.274-3.394-11.548-3.138c-8.857,0.513-15.724,6.782-15.308,13.976 C205.688,268.839,207.559,272.027,210.755,274.316z M220.835,252.111c0.377-0.021,0.753-0.032,1.127-0.032 c3.693,0,7.188,1.06,9.942,3.032c3.008,2.154,4.769,5.142,4.958,8.41c0.393,6.78-6.158,12.695-14.602,13.185 c-4.109,0.23-8.037-0.828-11.068-3c-3.008-2.154-4.769-5.141-4.958-8.41C205.841,258.516,212.392,252.601,220.835,252.111z M275.183,328.621c-16.268,10.565-36.775,16.84-59.306,18.145c-2.957,0.171-5.881,0.256-8.763,0.256 c-26.833,0.001-50.326-7.387-68.365-21.575c-21.558-16.957-33.941-42.985-35.811-75.27c-0.539-9.309-0.201-18.981,0.991-28.76 c0.16-5.45,0.583-10.974,1.287-16.531c0.026-0.206,0.206-0.354,0.419-0.325c0.205,0.026,0.351,0.214,0.325,0.419 c-1.299,10.252-1.67,20.396-1.105,30.15c1.903,32.868,14.499,59.358,36.425,76.604c20.329,15.991,47.485,23.494,78.541,21.694 c31.052-1.799,57.164-12.386,75.511-30.617c19.788-19.662,29.241-47.429,27.338-80.298c-1.547-26.702-10.377-54.936-24.866-79.502 c-0.104-0.178-0.046-0.408,0.133-0.513c0.177-0.105,0.408-0.047,0.514,0.132c14.548,24.667,23.415,53.021,24.968,79.84 c1.334,23.023-2.88,43.561-12.282,60.605C304.396,302.173,292.309,317.498,275.183,328.621z" fill="inherit"/></g><g id="change4_1"><path d="M197.851,164.014c-0.289-0.334-0.25-0.841,0.08-1.129l10.192-8.847c0.206-0.179,0.49-0.241,0.753-0.163 c0.262,0.078,0.466,0.284,0.542,0.547l3.707,12.977c0.043,0.151,0.039,0.306-0.002,0.447c-0.075,0.253-0.275,0.464-0.547,0.542 c-0.424,0.122-0.867-0.125-0.989-0.55l-2.876-10.069c-2.327,7.842-3.796,15.904-4.346,23.998c-0.036,0.528-0.475,0.932-0.997,0.932 c-0.023,0-0.046-0.001-0.069-0.002c-0.551-0.037-0.967-0.514-0.93-1.065c0.556-8.189,2.036-16.345,4.379-24.281l-7.767,6.743 C198.646,164.383,198.14,164.347,197.851,164.014z M196.243,201.012l5.95-8.496c-0.379,11.36,0.93,22.827,3.94,34.117 c0.119,0.447,0.523,0.743,0.966,0.743c0.085,0,0.172-0.011,0.258-0.034c0.534-0.143,0.851-0.69,0.708-1.224 c-2.959-11.097-4.246-22.365-3.875-33.526l5.189,8.997c0.221,0.383,0.711,0.514,1.093,0.294c0.246-0.142,0.388-0.395,0.4-0.659 c0.006-0.147-0.028-0.298-0.106-0.434l-6.744-11.691c-0.137-0.237-0.385-0.388-0.658-0.399c-0.273-0.012-0.534,0.117-0.691,0.34 l-7.742,11.055c-0.25,0.359-0.164,0.861,0.197,1.114C195.49,201.462,195.99,201.374,196.243,201.012z M209.099,231.375 c-0.23,0.067-0.409,0.248-0.475,0.477l-3.278,11.345c-0.106,0.368,0.108,0.759,0.479,0.867c0.371,0.108,0.759-0.107,0.867-0.478 l2.441-8.448c4.268,14.281,9.661,22.898,9.898,23.272c0.19,0.301,0.515,0.465,0.846,0.465c0.183,0,0.368-0.05,0.534-0.155 c0.466-0.296,0.605-0.913,0.31-1.38c-0.057-0.09-5.495-8.79-9.694-22.854l6.706,5.856c0.291,0.254,0.734,0.225,0.988-0.067 c0.163-0.188,0.209-0.437,0.144-0.659c-0.036-0.123-0.107-0.239-0.211-0.329l-8.895-7.768 C209.577,231.363,209.329,231.308,209.099,231.375z M268.065,193.336c0.233,0,0.468-0.081,0.657-0.247 c6.112-5.334,12.851-9.997,20.042-13.896l-5.086,9.154c-0.214,0.386-0.075,0.874,0.311,1.088c0.249,0.137,0.538,0.129,0.771,0.004 c0.129-0.07,0.241-0.177,0.318-0.314l6.555-11.798c0.133-0.239,0.134-0.529,0.004-0.77c-0.13-0.24-0.375-0.398-0.647-0.417 l-13.463-0.951c-0.437-0.03-0.823,0.302-0.854,0.742s0.301,0.823,0.742,0.854l10.26,0.725c-7.269,3.954-14.082,8.675-20.265,14.072 c-0.416,0.363-0.459,0.995-0.096,1.411C267.51,193.221,267.787,193.336,268.065,193.336z M238.614,227.433 c0.157,0.091,0.33,0.135,0.5,0.135c0.345,0,0.681-0.179,0.866-0.499c5.754-9.938,12.811-18.816,20.966-26.446l-2.692,10.031 c-0.114,0.427,0.139,0.867,0.565,0.98c0.274,0.073,0.554-0.005,0.748-0.183c0.108-0.099,0.191-0.23,0.232-0.382l3.498-13.035 c0.071-0.264,0.002-0.546-0.183-0.748c-0.185-0.202-0.46-0.295-0.729-0.248l-13.292,2.342c-0.431,0.077-0.725,0.492-0.649,0.927 c0.076,0.435,0.492,0.725,0.927,0.649l10.214-1.8c-8.301,7.766-15.483,16.799-21.337,26.91 C237.973,226.545,238.137,227.157,238.614,227.433z M225.656,258.851c0.074,0.017,0.147,0.024,0.22,0.024 c0.458,0,0.871-0.316,0.975-0.781c0.023-0.103,2.32-10.104,9.305-23.027l0.601,8.895c0.026,0.386,0.36,0.678,0.746,0.651 c0.248-0.017,0.457-0.161,0.568-0.364c0.062-0.113,0.093-0.244,0.084-0.382l-0.797-11.782c-0.016-0.239-0.153-0.453-0.363-0.567 s-0.464-0.114-0.674,0.001l-10.34,5.704c-0.335,0.186-0.461,0.613-0.275,0.951c0.186,0.338,0.613,0.461,0.951,0.275l7.69-4.242 c-7.082,13.118-9.351,23.018-9.447,23.449C224.778,258.195,225.118,258.729,225.656,258.851z M315.46,224.227l-11.849-6.461 c-0.385-0.209-0.874-0.067-1.085,0.32c-0.212,0.387-0.068,0.874,0.32,1.085l8.994,4.904c-11.967,0.734-19.133,2.592-28.473,5.877 c-0.521,0.183-0.795,0.754-0.611,1.275c0.145,0.411,0.531,0.668,0.943,0.668c0.11,0,0.222-0.019,0.332-0.058 c9.424-3.314,16.242-5.073,28.166-5.78l-8.46,6.233c-0.356,0.262-0.432,0.764-0.17,1.119c0.169,0.228,0.436,0.341,0.699,0.324 c0.147-0.01,0.293-0.061,0.419-0.154l10.865-8.006c0.22-0.162,0.342-0.426,0.324-0.699S315.7,224.358,315.46,224.227z M278.109,232.399l-13.232-2.659c-0.429-0.085-0.854,0.195-0.942,0.627c-0.087,0.432,0.194,0.855,0.627,0.942l10.087,2.027 c-7.348,2.851-14.416,6.386-21.031,10.541c-0.468,0.294-0.608,0.911-0.314,1.379c0.189,0.302,0.515,0.468,0.848,0.468 c0.182,0,0.365-0.05,0.531-0.153c6.547-4.113,13.549-7.609,20.828-10.423l-6.208,8.427c-0.262,0.356-0.186,0.858,0.169,1.119 c0.229,0.168,0.518,0.197,0.764,0.102c0.137-0.053,0.262-0.145,0.355-0.271l8.005-10.866c0.162-0.22,0.201-0.508,0.102-0.763 S278.377,232.453,278.109,232.399z M230.69,260.942c-0.369,0.411-0.334,1.043,0.077,1.412c0.191,0.171,0.43,0.255,0.667,0.255 c0.274,0,0.547-0.112,0.745-0.333c0.055-0.061,5.422-5.986,15.553-12.785l-3.631,8.111c-0.158,0.353,0,0.768,0.353,0.925 c0.227,0.101,0.479,0.072,0.672-0.055c0.107-0.071,0.197-0.172,0.253-0.298l4.825-10.779c0.098-0.218,0.077-0.472-0.055-0.671 c-0.132-0.2-0.357-0.318-0.596-0.315l-11.808,0.186c-0.383,0.007-0.694,0.325-0.689,0.711c0.006,0.386,0.325,0.695,0.711,0.689 l8.81-0.139C236.28,254.768,230.923,260.681,230.69,260.942z M144.079,196.43c0.426,0.115,0.865-0.139,0.98-0.566l2.661-9.935 c2.502,7.889,5.842,15.475,9.964,22.571c0.186,0.319,0.521,0.498,0.866,0.498c0.17,0,0.343-0.043,0.501-0.135 c0.478-0.277,0.64-0.89,0.362-1.367c-4.075-7.013-7.371-14.515-9.833-22.317l8.02,6.733c0.339,0.284,0.844,0.24,1.127-0.098 c0.182-0.218,0.229-0.504,0.15-0.756c-0.044-0.14-0.128-0.27-0.248-0.372l-10.337-8.677c-0.209-0.176-0.494-0.232-0.755-0.15 c-0.261,0.082-0.462,0.292-0.532,0.556l-3.492,13.037C143.401,195.873,143.653,196.316,144.079,196.43z M162.647,228.774 c0.441,0.008,0.806-0.345,0.813-0.787l0.174-10.37c6.045,9.624,13.549,18.392,22.365,26.063c0.189,0.165,0.423,0.246,0.656,0.246 c0.279,0,0.557-0.116,0.755-0.344c0.362-0.416,0.319-1.048-0.098-1.41c-8.665-7.541-16.039-16.157-21.979-25.612l9.337,4.549 c0.397,0.193,0.877,0.028,1.07-0.369c0.124-0.256,0.1-0.545-0.038-0.77c-0.077-0.125-0.189-0.231-0.331-0.3l-12.133-5.912 c-0.246-0.12-0.536-0.106-0.769,0.037c-0.233,0.143-0.377,0.395-0.382,0.669l-0.227,13.494 C161.853,228.398,162.206,228.766,162.647,228.774z M194.62,257.847c0.119,0.364,0.514,0.569,0.882,0.45 c0.367-0.118,0.569-0.514,0.45-0.882l-2.707-8.366c11.532,9.444,20.824,13.564,21.23,13.742c0.13,0.057,0.266,0.083,0.399,0.083 c0.386,0,0.753-0.224,0.917-0.6c0.221-0.507-0.01-1.096-0.517-1.317c-0.097-0.042-9.462-4.184-20.839-13.511l8.847,1.1 c0.384,0.048,0.734-0.225,0.781-0.608c0.03-0.247-0.071-0.479-0.249-0.627c-0.099-0.082-0.222-0.138-0.359-0.155l-11.719-1.457 c-0.237-0.029-0.474,0.064-0.626,0.249c-0.152,0.184-0.2,0.434-0.127,0.662L194.62,257.847z M136.505,252.706 c-7.297-3.545-14.219-7.931-20.614-13.029l10.412,1.11c0.439,0.047,0.834-0.272,0.881-0.711c0.029-0.282-0.091-0.546-0.297-0.711 c-0.115-0.092-0.257-0.153-0.413-0.17l-13.42-1.431c-0.272-0.029-0.54,0.083-0.71,0.297c-0.17,0.214-0.22,0.5-0.131,0.759 l4.378,12.766c0.143,0.414,0.599,0.64,1.017,0.497c0.418-0.143,0.64-0.599,0.497-1.017l-3.337-9.729 c6.477,5.149,13.482,9.58,20.865,13.167c0.141,0.068,0.29,0.101,0.437,0.101c0.371,0,0.727-0.207,0.9-0.562 C137.209,253.546,137.002,252.947,136.505,252.706z M145.656,258.75c10.389,4.612,21.51,7.7,33.104,9.144 c0.042,0.005,0.083,0.008,0.125,0.008c0.497,0,0.928-0.37,0.991-0.876c0.068-0.549-0.32-1.048-0.869-1.116 c-11.395-1.42-22.323-4.453-32.53-8.984l10.285-1.436c0.438-0.061,0.744-0.466,0.682-0.903c-0.04-0.281-0.221-0.508-0.461-0.618 c-0.134-0.061-0.286-0.086-0.442-0.064l-13.367,1.866c-0.271,0.038-0.504,0.211-0.617,0.46c-0.114,0.249-0.092,0.538,0.056,0.768 l7.343,11.324c0.239,0.367,0.736,0.475,1.107,0.236c0.371-0.24,0.476-0.736,0.236-1.107L145.656,258.75z M213.055,267.858 c0.543-0.099,0.903-0.619,0.804-1.163c-0.099-0.543-0.62-0.905-1.163-0.804c-0.106,0.019-10.21,1.806-24.832,0.419l7.954-4.024 c0.345-0.175,0.484-0.596,0.309-0.941c-0.113-0.221-0.327-0.358-0.557-0.381c-0.128-0.013-0.261,0.01-0.384,0.072l-10.537,5.332 c-0.213,0.108-0.357,0.318-0.381,0.556s0.076,0.472,0.264,0.62l9.287,7.294c0.302,0.236,0.744,0.185,0.983-0.118 s0.186-0.744-0.118-0.983l-6.905-5.423c4.171,0.394,7.961,0.538,11.262,0.538C207.485,268.851,212.742,267.916,213.055,267.858z M187.971,292.093c-10.037,5.582-20.648,9.586-31.56,11.956l7.454-7.232c0.317-0.308,0.325-0.815,0.017-1.131 c-0.198-0.203-0.478-0.28-0.737-0.226c-0.144,0.03-0.282,0.1-0.395,0.209l-9.686,9.398c-0.196,0.19-0.282,0.468-0.226,0.736 s0.244,0.489,0.499,0.586l12.613,4.803c0.409,0.155,0.875-0.051,1.032-0.463c0.158-0.412-0.05-0.875-0.463-1.032l-9.693-3.692 c11.108-2.411,21.906-6.484,32.117-12.164c0.483-0.269,0.657-0.878,0.388-1.36C189.063,291.999,188.454,291.825,187.971,292.093z M205.245,289.153l-8.789-0.3c12.805-7.632,19.84-14.968,20.144-15.29c0.38-0.4,0.363-1.033-0.038-1.413 c-0.4-0.38-1.032-0.363-1.414,0.037c-0.073,0.077-7.178,7.479-19.788,14.989l4.038-7.934c0.175-0.345,0.038-0.767-0.306-0.942 c-0.222-0.112-0.475-0.096-0.674,0.021c-0.111,0.065-0.205,0.162-0.268,0.285l-5.357,10.525c-0.108,0.213-0.101,0.467,0.021,0.673 c0.122,0.206,0.34,0.336,0.579,0.344l11.802,0.404c0.383,0.012,0.71-0.29,0.724-0.676 C205.934,289.49,205.631,289.166,205.245,289.153z M300.86,267.784c-0.212-0.383-0.7-0.527-1.087-0.314s-0.528,0.7-0.314,1.087 l4.955,8.991c-8.633-4.74-14.468-6.702-22.423-8.711c-0.538-0.135-1.08,0.189-1.215,0.725c-0.135,0.536,0.189,1.079,0.725,1.215 c7.84,1.98,13.58,3.914,22.118,8.617l-10.464,0.702c-0.441,0.03-0.775,0.412-0.745,0.852c0.02,0.283,0.184,0.522,0.415,0.649 c0.129,0.07,0.279,0.106,0.436,0.096l13.466-0.904c0.273-0.018,0.517-0.175,0.649-0.415c0.131-0.24,0.131-0.531-0.001-0.77 L300.86,267.784z M267.557,258.591c-0.31-0.309-0.819-0.312-1.132,0c-0.312,0.312-0.312,0.819,0,1.132l7.288,7.291 c-6.293-1.353-12.663-2.155-18.965-2.374c-0.585-0.044-1.015,0.412-1.034,0.964c-0.02,0.553,0.412,1.016,0.964,1.034 c6.22,0.217,12.506,1.012,18.717,2.353l-9.82,3.569c-0.415,0.151-0.63,0.611-0.479,1.025c0.098,0.267,0.322,0.451,0.579,0.508 c0.143,0.032,0.298,0.025,0.446-0.029l12.684-4.61c0.257-0.093,0.448-0.312,0.508-0.579c0.059-0.267-0.022-0.546-0.215-0.739 L267.557,258.591z M239.79,271.946c0.135,0.208,0.362,0.322,0.593,0.321c0.128-0.001,0.259-0.037,0.375-0.112l9.923-6.402 c0.201-0.13,0.322-0.353,0.32-0.593c-0.001-0.239-0.125-0.461-0.327-0.589l-9.998-6.285c-0.325-0.203-0.759-0.106-0.965,0.22 c-0.206,0.327-0.107,0.759,0.22,0.965l7.359,4.626c-9.906,0.014-15.958,1.47-16.227,1.535c-0.537,0.132-0.865,0.673-0.733,1.21 c0.112,0.456,0.521,0.762,0.97,0.762c0.079,0,0.159-0.009,0.239-0.028c0.065-0.016,6.19-1.492,16.022-1.477l-7.562,4.879 C239.674,271.188,239.58,271.622,239.79,271.946z M266.777,300.403c-0.441-0.025-0.819,0.313-0.843,0.755l-0.57,10.251 c-3.983-7.083-8.866-13.86-14.556-20.163c-0.371-0.411-1.002-0.441-1.412-0.072c-0.41,0.37-0.442,1.002-0.072,1.412 c5.635,6.242,10.462,12.954,14.389,19.966l-9.245-4.957c-0.389-0.209-0.875-0.062-1.083,0.327c-0.134,0.25-0.121,0.54,0.008,0.771 c0.072,0.128,0.18,0.238,0.319,0.313l11.894,6.378c0.241,0.129,0.531,0.126,0.77-0.008c0.238-0.134,0.392-0.38,0.407-0.653 l0.75-13.475C267.556,300.809,267.218,300.428,266.777,300.403z M244.456,275.307c-0.379,0.073-0.628,0.441-0.554,0.82l1.671,8.642 c-9.498-9.904-17.55-14.958-17.903-15.177c-0.471-0.291-1.086-0.147-1.377,0.322c-0.291,0.469-0.147,1.086,0.322,1.377 c0.085,0.052,8.209,5.157,17.559,14.91l-8.628-2.163c-0.375-0.094-0.756,0.134-0.849,0.509c-0.06,0.241,0.012,0.484,0.171,0.652 c0.088,0.093,0.204,0.164,0.337,0.197l11.455,2.871c0.232,0.058,0.478-0.006,0.652-0.171c0.174-0.164,0.251-0.407,0.206-0.641 l-2.242-11.595C245.204,275.485,244.836,275.234,244.456,275.307z M220.627,318.673l-8.64,5.559 c3.207-7.002,5.69-14.494,7.371-22.315c0.116-0.54-0.228-1.071-0.768-1.188c-0.537-0.119-1.072,0.227-1.188,0.768 c-1.664,7.737-4.125,15.144-7.306,22.058l-1.412-10.388c-0.06-0.438-0.463-0.745-0.9-0.685c-0.281,0.039-0.509,0.219-0.619,0.459 c-0.061,0.133-0.087,0.286-0.066,0.442l1.818,13.373c0.037,0.271,0.21,0.504,0.458,0.619c0.248,0.114,0.538,0.094,0.768-0.054 l11.35-7.302c0.368-0.237,0.478-0.735,0.24-1.106S220.999,318.434,220.627,318.673z M227.507,287.689l-6.036,6.412 c2.314-12.703,1.737-21.555,1.709-21.943c-0.039-0.551-0.511-0.976-1.068-0.927c-0.551,0.038-0.966,0.517-0.927,1.067 c0.007,0.092,0.587,8.991-1.692,21.499l-3.29-8.26c-0.143-0.359-0.551-0.535-0.909-0.392c-0.231,0.092-0.386,0.293-0.429,0.52 c-0.024,0.126-0.014,0.261,0.037,0.389l4.37,10.971c0.089,0.222,0.285,0.384,0.52,0.429c0.235,0.045,0.477-0.034,0.641-0.208 l8.094-8.599c0.262-0.279,0.251-0.725-0.03-0.99C228.216,287.394,227.773,287.407,227.507,287.689z" fill="#6A3996"/></g></svg>