<?xml version="1.0" encoding="UTF-8"?><svg xmlns="http://www.w3.org/2000/svg" xmlns:xlink="http://www.w3.org/1999/xlink" height="136.0" preserveAspectRatio="xMidYMid meet" version="1.0" viewBox="66.1 66.1 132.3 136.0" width="132.3" zoomAndPan="magnify"><g id="change1_1"><circle cx="132.292" cy="132.292" fill="#fac832" paint-order="fill markers stroke" r="66.146"/></g><path d="m 109.17103,93.052564 c -1.17454,4.8218 -4.21956,8.969626 -8.26623,11.260016 -4.046653,2.29038 -8.800633,3.93601 -14.214963,2.9444" fill="none" stroke="#d99800" stroke-linecap="round" stroke-width="6.615"/><path d="m 155.41227,93.052554 c 1.17454,4.82181 4.21956,8.969636 8.26623,11.260016 4.04667,2.29039 8.80066,3.93602 14.215,2.94442" fill="none" stroke="#d99800" stroke-linecap="round" stroke-width="6.615"/><path d="m 122.36977,167.717 c 4.59119,-3.82479 15.41506,-3.82479 19.84374,0.002" fill="none" stroke="#4d4d4d" stroke-linecap="round" stroke-width="6.615"/><g id="change2_1"><path d="m 97.234357,188.32908 a 66.145835,66.145835 0 0 0 1.98438,1.24643 66.145835,66.145835 0 0 0 4.373363,2.31149 66.145835,66.145835 0 0 0 4.53358,1.97818 66.145835,66.145835 0 0 0 1.80867,0.63303 v -58.9964 H 97.234357 Z" fill="#3d8cf2" paint-order="fill markers stroke"/></g><g id="change2_2"><path d="m 154.64893,194.49821 a 66.145835,66.145835 0 0 0 1.80868,-0.63303 66.145835,66.145835 0 0 0 4.53357,-1.97818 66.145835,66.145835 0 0 0 4.37338,-2.31149 66.145835,66.145835 0 0 0 1.98437,-1.24643 v -52.82727 h -12.7 z" fill="#3d8cf2" paint-order="fill markers stroke"/></g><g paint-order="fill markers stroke" stroke-width=".917" transform="matrix(1.0909 0 0 1.0909 -9.994 -14.621)"><g id="change3_1"><circle cx="107.024" cy="128.819" fill="#4d4d4d" r="14.552"/></g><g id="change4_1"><ellipse cx="27.871" cy="159.418" fill="#f2f2f2" rx="9.455" ry="7.45" transform="rotate(-30)"/></g><g id="change4_2"><ellipse cx="29.863" cy="173.364" fill="#f2f2f2" rx="3.476" ry="2.739" transform="rotate(-30)"/></g></g><g paint-order="fill markers stroke" stroke-width=".917" transform="matrix(1.0909 0 0 1.0909 41.07 -14.621)"><g id="change3_2"><circle cx="107.024" cy="128.819" fill="#4d4d4d" r="14.552"/></g><g id="change4_3"><ellipse cx="27.871" cy="159.418" fill="#f2f2f2" rx="9.455" ry="7.45" transform="rotate(-30)"/></g><g id="change4_4"><ellipse cx="29.863" cy="173.364" fill="#f2f2f2" rx="3.476" ry="2.739" transform="rotate(-30)"/></g></g><g id="change2_3"><ellipse cx="132.292" cy="194.214" fill="#3d8cf2" paint-order="fill markers stroke" rx="52.917" ry="7.938"/></g></svg>