<?xml version="1.0" encoding="UTF-8"?><svg xmlns="http://www.w3.org/2000/svg" xmlns:xlink="http://www.w3.org/1999/xlink" height="22.0" preserveAspectRatio="xMidYMid meet" version="1.0" viewBox="1.0 1.0 22.0 22.0" width="22.0" zoomAndPan="magnify"><defs><linearGradient gradientUnits="userSpaceOnUse" id="a" x1="12" x2="12" xlink:actuate="onLoad" xlink:show="other" xlink:type="simple" xmlns:xlink="http://www.w3.org/1999/xlink" y1="23" y2="1"><stop offset="0" stop-color="#f8de40"/><stop offset=".11" stop-color="#f6d83f"/><stop offset=".261" stop-color="#f1c63e"/><stop offset=".436" stop-color="#e8a93b"/><stop offset=".628" stop-color="#dc8137"/><stop offset=".833" stop-color="#cc4d32"/><stop offset="1" stop-color="#be1e2d"/></linearGradient></defs><circle cx="12" cy="12" fill="url(#a)" r="11"/><g id="change1_1"><path d="M10.653,13.333A10.54,10.54,0,0,1,4.3,10.973l.431-.537a9.884,9.884,0,0,0,6.062,2.207l.035.686C10.808,13.33,10.749,13.333,10.653,13.333Z" fill="#864e20"/></g><g id="change1_2"><path d="M7.244,12.286a1.219,1.219,0,1,0,1.688.5A10.45,10.45,0,0,1,7.244,12.286Z" fill="#864e20"/></g><g id="change1_3"><path d="M13.347,13.333a10.54,10.54,0,0,0,6.357-2.36l-.431-.537a9.884,9.884,0,0,1-6.062,2.207l-.035.686C13.192,13.33,13.251,13.333,13.347,13.333Z" fill="#864e20"/></g><g id="change1_4"><path d="M16.756,12.286a1.219,1.219,0,1,1-1.688.5A10.45,10.45,0,0,0,16.756,12.286Z" fill="#864e20"/></g><g id="change1_5"><path d="M7.991 16.379H16.009V17.067H7.991z" fill="#864e20"/></g></svg>